<svg xmlns="http://www.w3.org/2000/svg" version="1.1" xmlns:xlink="http://www.w3.org/1999/xlink" width="512" height="512" x="0" y="0" viewBox="0 0 12.7 12.7" style="enable-background:new 0 0 512 512" xml:space="preserve" class=""><g><path d="M4.64.53c-.568 0-1.065.331-1.307.809a.529.529 0 1 0 .916.53c.05-.17.2-.283.39-.283h6.067c.234 0 .406.172.406.407V8.06a.39.39 0 0 1-.264.382.53.53 0 1 0 .53.917c.469-.245.793-.738.793-1.299V1.993c0-.803-.663-1.463-1.465-1.463zM1.994 3.177c-.802 0-1.465.66-1.465 1.462v6.068c0 .803.663 1.463 1.465 1.463H8.06c.803 0 1.466-.66 1.466-1.463V4.64c0-.802-.663-1.462-1.466-1.462zm0 1.056H8.06c.235 0 .407.172.407.406v6.068a.395.395 0 0 1-.407.407H1.994a.395.395 0 0 1-.406-.407V4.64c0-.234.172-.406.406-.406z" opacity="1" data-original="#000000"></path></g></svg>